<svg version="1.1" id="Layer_1" xmlns:x="ns_extend;" xmlns:i="ns_ai;" xmlns:graph="ns_graphs;" xmlns="http://www.w3.org/2000/svg" xmlns:xlink="http://www.w3.org/1999/xlink" x="0px" y="0px" viewBox="0 0 258 75.2" style="enable-background:new 0 0 258 75.2;" xml:space="preserve">
 <style type="text/css">
  .st0{fill:#1F074F;}
	.st1{fill:#04AB61;}
	.st2{fill-rule:evenodd;clip-rule:evenodd;fill:#FBB016;}
	.st3{fill:#FBB016;}
 </style>
 <metadata>
  <sfw xmlns="ns_sfw;">
   <slices>
   </slices>
   <sliceSourceBounds bottomLeftOrigin="true" height="75.2" width="258" x="7.5" y="69.1">
   </sliceSourceBounds>
  </sfw>
 </metadata>
 <g>
  <g>
   <path class="st0" d="M70.7,38.6c-1.9-1.6-4.5-2.4-7.9-2.4h-5.5h-2.6h-3.2v29.5h5.8v-8.5h4.1c2,0,3.8-0.3,5.3-0.9
			c1.5-0.6,2.7-1.5,3.7-2.6s1.7-2.3,2.2-3.7s0.7-2.9,0.7-4.4C73.4,42.5,72.5,40.2,70.7,38.6z M66.9,49c-0.4,1-1.1,1.8-2,2.5
			c-0.9,0.6-2.1,0.9-3.6,0.9h-4V41.2h5.4c1.4,0,2.6,0.3,3.5,1s1.4,1.8,1.4,3.4C67.6,46.9,67.4,48,66.9,49z">
   </path>
   <path class="st0" d="M96.6,59.7c0-0.9,0-1.6,0-2.2v-5.2c0-2-0.3-3.6-0.8-4.8c-0.5-1.3-1.3-2.2-2.2-2.9c-1-0.7-2.1-1.2-3.4-1.4
			c-1.3-0.3-2.7-0.4-4.2-0.4c-1.2,0-2.5,0.1-3.7,0.3S80,43.5,79,43.9v4.6h0.4c0.7-0.3,1.5-0.6,2.6-0.8s2.2-0.4,3.3-0.4
			c1.3,0,2.3,0.1,3.2,0.4c0.8,0.2,1.5,0.7,1.9,1.4s0.7,1.8,0.7,3.2v0.4c-0.4-0.1-0.8-0.2-1.2-0.3c-0.9-0.2-1.9-0.3-3.1-0.3
			c-1.9,0-3.6,0.3-5.1,0.8c-1.4,0.5-2.6,1.3-3.4,2.3s-1.2,2.4-1.2,4c0,2.5,0.9,4.3,2.6,5.5c1.7,1.1,4.3,1.7,7.7,1.7
			c1,0,2.1-0.1,3.2-0.2s2.2-0.3,3.3-0.6c1.1-0.3,2.1-0.6,3-0.9l0.1-0.3c-0.1-0.5-0.2-1.1-0.2-2C96.6,61.4,96.6,60.6,96.6,59.7z
			 M90,62c-0.9,0.2-1.8,0.2-2.7,0.2c-1.6,0-2.8-0.2-3.6-0.7c-0.8-0.5-1.3-1.3-1.3-2.4c0-1.2,0.4-2,1.3-2.5s2.2-0.7,4-0.7
			c0.8,0,1.6,0.1,2.5,0.2c0.3,0.1,0.6,0.1,0.9,0.2v1.6c0,0.7,0,1.2,0,1.7c0,0.4,0.1,0.8,0.1,1.2c0,0.3,0.1,0.6,0.2,0.9
			C90.8,61.8,90.4,61.9,90,62z">
   </path>
   <polygon class="st0" points="111.5,59 106.3,43.3 100.2,43.3 100.2,43.8 108.7,66.2 105.1,74.8 105.1,75.2 110.8,75.2 123,43.8 
			123,43.3 117.2,43.3 		">
   </polygon>
   <path class="st0" d="M158.1,44.7c-1-0.7-2-1.2-3.2-1.5s-2.5-0.4-3.8-0.4c-1.4,0-2.7,0.2-4.1,0.5c-1.2,0.3-2.3,0.6-3.3,1.1
			c-0.8-0.5-1.7-0.9-2.7-1.1c-1.2-0.3-2.4-0.5-3.7-0.5c-1.1,0-2.3,0.1-3.5,0.3s-2.4,0.4-3.5,0.7s-2.1,0.6-2.9,0.9l-0.1,0.3
			c0.1,0.5,0.2,1.2,0.2,2c0.1,0.8,0.1,1.7,0.1,2.5s0,1.5,0,2.1v14h5.7V50.8c0-0.8,0-1.6-0.1-2.3c0-0.2-0.1-0.4-0.1-0.5
			c0.3-0.1,0.7-0.2,1.1-0.3c0.8-0.2,1.7-0.3,2.5-0.3c1,0,1.8,0.2,2.6,0.5s1.4,0.9,1.8,1.7c0.4,0.8,0.7,1.9,0.7,3.4v12.7h5.7V52.8
			c0-1.9-0.3-3.5-0.8-4.7c0.5-0.2,1-0.3,1.5-0.4c0.7-0.2,1.4-0.2,2.1-0.2c1.1,0,2,0.2,2.8,0.5s1.4,0.9,1.8,1.7
			c0.4,0.8,0.6,1.9,0.6,3.4v12.7h5.7v-13c0-2.1-0.3-3.8-0.8-5C159.8,46.5,159.1,45.5,158.1,44.7z">
   </path>
   <path class="st0" d="M184.2,44.4c-1.6-1-3.6-1.6-6.1-1.6c-2.2,0-4.2,0.5-5.8,1.4s-2.9,2.3-3.8,4c-0.9,1.7-1.4,3.8-1.4,6.2
			c0,2,0.3,3.8,0.9,5.2c0.6,1.5,1.5,2.7,2.6,3.6s2.5,1.6,4.1,2.1s3.4,0.7,5.5,0.7c1.5,0,2.8-0.1,3.9-0.3c1.1-0.2,2.1-0.5,2.8-0.8
			v-4.6h-0.4c-0.6,0.3-1.4,0.6-2.4,0.9c-1,0.2-2.2,0.4-3.5,0.4c-1.5,0-2.8-0.2-4-0.6c-1.1-0.4-2-1.1-2.7-2c-0.5-0.7-0.8-1.6-0.9-2.7
			h15.4v-1.4c0.1-2.4-0.2-4.4-0.9-6.2C186.9,46.8,185.8,45.4,184.2,44.4z M182.8,52.5H173c0.1-1,0.3-1.9,0.6-2.6
			c0.5-1,1.1-1.7,1.8-2.1c0.8-0.4,1.7-0.7,2.7-0.7c1.6,0,2.8,0.4,3.5,1.3c0.8,0.9,1.2,2.1,1.2,3.8V52.5z">
   </path>
   <path class="st0" d="M211.7,44.8c-1-0.7-2.2-1.2-3.4-1.5c-1.3-0.3-2.6-0.5-4-0.5c-1.1,0-2.3,0.1-3.5,0.3s-2.4,0.4-3.5,0.7
			s-2.1,0.6-2.9,0.9l-0.1,0.3c0.1,0.5,0.2,1.2,0.2,2c0.1,0.8,0.1,1.7,0.1,2.5s0,1.5,0,2.1v14h5.7V50.8c0-0.8,0-1.6-0.1-2.3
			c0-0.2-0.1-0.4-0.1-0.5c0.3-0.1,0.7-0.2,1.1-0.3c0.8-0.2,1.7-0.3,2.5-0.3c1.1,0,2.1,0.2,2.9,0.5c0.8,0.3,1.4,0.9,1.9,1.7
			c0.4,0.8,0.7,1.9,0.7,3.4v12.7h5.7V52.8c0-2-0.3-3.7-0.9-5C213.5,46.5,212.8,45.5,211.7,44.8z">
   </path>
   <path class="st0" d="M234,61.2c-0.5,0.1-1,0.2-1.5,0.2c-1.4,0-2.4-0.3-3-0.9s-1-1.6-1-3v-9.6h6.1v-4.6h-6.1v-5.8h-5.7v5.8h-3.6
			v4.6h3.6v10c0,1.9,0.3,3.4,1,4.6s1.7,2,3.1,2.6c1.4,0.6,3,0.9,5,0.9c0.8,0,1.6-0.1,2.2-0.2c0.7-0.1,1.2-0.3,1.7-0.5v-4.6h-0.4
			C235,61,234.5,61.1,234,61.2z">
   </path>
   <path class="st0" d="M254.2,53.6c-1-0.5-2.2-0.8-3.5-1l-1.9-0.3c-1.2-0.2-2.2-0.5-2.8-0.8s-0.9-0.8-0.9-1.5c0-0.9,0.4-1.6,1.3-1.9
			c0.9-0.4,2.1-0.6,3.6-0.6c1,0,2,0.1,3,0.2c1,0.2,2,0.5,3,0.9h0.3v-4.7c-0.9-0.3-1.9-0.5-2.9-0.6c-1-0.2-2.1-0.2-3.2-0.2
			c-2.5,0-4.6,0.3-6.1,1c-1.5,0.6-2.7,1.5-3.4,2.6s-1.1,2.3-1.1,3.6c0,1.9,0.6,3.3,1.8,4.2s2.9,1.6,5,2l1.9,0.3
			c1.3,0.2,2.3,0.5,2.9,0.8s0.9,0.8,0.9,1.6c0,0.6-0.2,1.1-0.5,1.4c-0.3,0.4-0.7,0.6-1.2,0.7s-1,0.2-1.5,0.3c-0.5,0-1.1,0-1.5,0
			c-1.3,0-2.7-0.1-4-0.5c-1.3-0.3-2.5-0.7-3.4-1.1h-0.3v4.9c1,0.3,2.2,0.6,3.5,0.8c1.3,0.2,2.6,0.3,3.9,0.3c3.6,0,6.2-0.6,8-1.8
			c1.8-1.2,2.7-3,2.7-5.4c0-1.3-0.3-2.4-0.9-3.3C256.1,54.8,255.3,54.1,254.2,53.6z">
   </path>
   <path class="st0" d="M81,30c2.3,1.2,5.2,1.8,8.7,1.8c1.4,0,2.6-0.1,3.7-0.3s2-0.5,2.8-0.9v-5.2h-0.4c-0.7,0.4-1.6,0.7-2.6,1
			c-1,0.2-2.1,0.3-3.2,0.3c-2.2,0-4-0.4-5.5-1.2c-1.5-0.8-2.6-1.9-3.4-3.4S80,18.7,80,16.5s0.4-4,1.1-5.5c0.8-1.5,1.9-2.7,3.4-3.5
			s3.3-1.2,5.5-1.2c1.1,0,2.2,0.1,3.2,0.4c1,0.2,1.9,0.5,2.6,0.9h0.4v-5c-0.7-0.4-1.7-0.6-2.8-0.9c-1.1-0.2-2.3-0.3-3.7-0.3
			c-3.4,0-6.3,0.6-8.7,1.9c-2.3,1.3-4.1,3-5.3,5.3c-1.2,2.3-1.8,4.9-1.8,8s0.6,5.9,1.8,8.2C77,27.1,78.7,28.8,81,30z">
   </path>
   <path class="st0" d="M103.9,30.2c1.7,1.1,4.3,1.7,7.7,1.7c1,0,2.1-0.1,3.2-0.2c1.1-0.1,2.2-0.3,3.3-0.6c1.1-0.3,2.1-0.6,3-0.9
			l0.1-0.3c-0.1-0.5-0.2-1.1-0.2-2c-0.1-0.8-0.1-1.7-0.1-2.5c0-0.9,0-1.6,0-2.2V18c0-2-0.3-3.6-0.8-4.8c-0.5-1.3-1.3-2.2-2.2-2.9
			c-1-0.7-2.1-1.2-3.4-1.4c-1.3-0.3-2.7-0.4-4.2-0.4c-1.2,0-2.5,0.1-3.7,0.3c-1.2,0.2-2.3,0.4-3.3,0.8v4.6h0.4
			c0.7-0.3,1.5-0.6,2.6-0.8c1.1-0.2,2.2-0.4,3.3-0.4c1.3,0,2.3,0.1,3.2,0.4c0.8,0.2,1.5,0.7,1.9,1.4c0.4,0.7,0.7,1.8,0.7,3.2v0.4
			c-0.4-0.1-0.8-0.2-1.2-0.3c-0.9-0.2-1.9-0.3-3.1-0.3c-1.9,0-3.6,0.3-5.1,0.8c-1.4,0.5-2.6,1.3-3.4,2.3s-1.2,2.4-1.2,4
			C101.3,27.3,102.2,29.1,103.9,30.2z M107.9,22.2c0.9-0.5,2.2-0.7,4-0.7c0.8,0,1.6,0.1,2.5,0.2c0.3,0.1,0.6,0.1,0.9,0.2v1.6
			c0,0.7,0,1.2,0,1.7c0,0.4,0.1,0.8,0.1,1.2c0,0.3,0.1,0.6,0.2,0.9c-0.4,0.1-0.8,0.3-1.2,0.4c-0.9,0.2-1.8,0.2-2.7,0.2
			c-1.6,0-2.8-0.2-3.6-0.7c-0.8-0.5-1.3-1.3-1.3-2.4C106.7,23.5,107.1,22.7,107.9,22.2z">
   </path>
   <path class="st0" d="M137.7,26.9c-0.5,0.1-1,0.2-1.5,0.3c-0.5,0-1.1,0-1.5,0c-1.3,0-2.7-0.2-4-0.5s-2.5-0.7-3.4-1.1H127v4.8
			c1,0.3,2.2,0.6,3.5,0.8s2.6,0.3,3.9,0.3c3.6,0,6.2-0.6,8-1.8s2.7-3,2.7-5.4c0-1.3-0.3-2.4-0.9-3.3c-0.6-0.9-1.5-1.6-2.5-2.1
			s-2.2-0.8-3.5-1l-1.9-0.3c-1.2-0.2-2.2-0.5-2.8-0.8s-0.9-0.8-0.9-1.5c0-0.9,0.4-1.6,1.3-1.9c0.9-0.4,2.1-0.6,3.6-0.6
			c1,0,2,0.1,3,0.2c1,0.2,2,0.5,3,0.9h0.3V9.2c-0.9-0.3-1.9-0.5-2.9-0.6c-1-0.2-2.1-0.2-3.2-0.2c-2.5,0-4.6,0.3-6.1,1
			c-1.5,0.6-2.7,1.5-3.4,2.6s-1.1,2.3-1.1,3.6c0,1.9,0.6,3.3,1.8,4.2s2.9,1.6,5,2l1.9,0.3c1.3,0.2,2.3,0.5,2.9,0.8
			c0.6,0.3,0.9,0.8,0.9,1.6c0,0.6-0.2,1.1-0.5,1.4C138.6,26.5,138.2,26.8,137.7,26.9z">
   </path>
   <path class="st0" d="M171,31.4V18.5c0-1.9-0.2-3.5-0.7-4.7c-0.5-1.3-1.2-2.3-2-3.1c-0.8-0.8-1.9-1.4-3-1.7
			c-1.1-0.4-2.4-0.5-3.7-0.5s-2.5,0.1-3.5,0.4c-0.5,0.1-1,0.3-1.5,0.5V0.2h-6l-0.1,0.3c0.1,0.5,0.2,1.1,0.2,2
			c0.1,0.8,0.1,1.7,0.1,2.5s0,1.5,0,2.1v24.2h5.7V13.8h0.1c0.5-0.1,1.1-0.3,1.7-0.4c0.6-0.1,1.2-0.2,1.8-0.2c1,0,1.9,0.2,2.7,0.5
			s1.4,0.9,1.8,1.7c0.4,0.8,0.7,1.9,0.7,3.4v12.6H171z">
   </path>
   <path class="st0" d="M188.5,0c-2,0-3.7,0.3-5.1,1c-1.4,0.7-2.5,1.7-3.2,3s-1.1,3-1.1,5h-3.6v4.6h3.6v17.8h5.7V13.6h5.7V9h-5.7
			c0-1.6,0.3-2.7,0.9-3.4c0.6-0.8,1.7-1.1,3.1-1.1c0.6,0,1.1,0.1,1.5,0.2c0.4,0.1,0.8,0.2,1.1,0.3h0.4V0.5c-0.4-0.2-0.9-0.3-1.5-0.4
			C189.9,0,189.2,0,188.5,0z">
   </path>
   <path class="st0" d="M194.8,15c0,0.8,0,1.5,0,2.1v14.3h5.7V16.5c0-1.2-0.1-2.1-0.2-2.8c0.3-0.1,0.6-0.1,1-0.2
			c0.8-0.1,1.7-0.2,2.6-0.2c0.5,0,1,0,1.5,0.1c0.5,0,1,0.1,1.4,0.2h0.4V8.9c-0.6-0.1-1.1-0.1-1.7-0.2c-0.6,0-1.1,0-1.6,0
			c-1.1,0-2.3,0.1-3.4,0.2c-1.1,0.1-2.2,0.3-3.2,0.5c-1,0.2-1.9,0.5-2.7,0.7l-0.1,0.3c0.1,0.5,0.2,1.2,0.2,2
			C194.7,13.3,194.8,14.1,194.8,15z">
   </path>
   <path class="st0" d="M227.5,31.5c1.1-0.2,2.1-0.5,2.8-0.8v-4.6h-0.4c-0.6,0.3-1.4,0.6-2.4,0.9c-1,0.2-2.2,0.4-3.5,0.4
			c-1.5,0-2.8-0.2-4-0.6c-1.1-0.4-2-1.1-2.7-2c-0.5-0.7-0.8-1.6-0.9-2.7h15.4v-1.4c0.1-2.4-0.2-4.4-0.9-6.2
			c-0.7-1.8-1.8-3.3-3.4-4.3c-1.6-1-3.6-1.6-6.1-1.6c-2.2,0-4.2,0.5-5.8,1.4s-2.9,2.3-3.8,4c-0.9,1.7-1.4,3.8-1.4,6.2
			c0,2,0.3,3.8,0.9,5.2c0.6,1.5,1.5,2.7,2.6,3.6c1.1,0.9,2.5,1.6,4.1,2.1s3.4,0.7,5.5,0.7C225.1,31.8,226.4,31.7,227.5,31.5z
			 M218.9,13.4c0.8-0.4,1.7-0.7,2.7-0.7c1.6,0,2.8,0.4,3.5,1.3c0.8,0.9,1.2,2.1,1.2,3.8V18h-9.8c0.1-1,0.3-1.9,0.6-2.6
			C217.5,14.5,218.1,13.8,218.9,13.4z">
   </path>
   <path class="st0" d="M257.1,14.3c-0.7-1.8-1.8-3.3-3.4-4.3s-3.6-1.6-6.1-1.6c-2.2,0-4.2,0.5-5.8,1.4s-2.9,2.3-3.8,4
			c-0.9,1.7-1.4,3.8-1.4,6.2c0,2,0.3,3.8,0.9,5.2c0.6,1.5,1.5,2.7,2.6,3.6c1.1,0.9,2.5,1.6,4.1,2.1s3.4,0.7,5.5,0.7
			c1.5,0,2.8-0.1,3.9-0.3s2.1-0.5,2.8-0.8v-4.6H256c-0.6,0.3-1.4,0.6-2.4,0.9c-1,0.2-2.2,0.4-3.5,0.4c-1.5,0-2.8-0.2-4-0.6
			c-1.1-0.4-2-1.1-2.7-2c-0.5-0.7-0.8-1.6-0.9-2.7h15.4v-1.4C258.1,18.2,257.8,16.1,257.1,14.3z M252.4,18.1h-9.8
			c0.1-1,0.3-1.9,0.6-2.6c0.5-1,1.1-1.7,1.8-2.1c0.8-0.4,1.7-0.7,2.7-0.7c1.6,0,2.8,0.4,3.5,1.3c0.8,0.9,1.2,2.1,1.2,3.8L252.4,18.1
			L252.4,18.1z">
   </path>
  </g>
  <path class="st1" d="M25.3,0.4c-5.9,0-10.8,4.8-10.8,10.7l0,0h39.9c5.9,0,10.8-4.8,10.8-10.8l0,0L25.3,0.4L25.3,0.4z">
  </path>
  <path class="st1" d="M14.5,11.1c0-5.9,4.8-10.8,10.8-10.8l0,0v39.9c0,5.9-4.8,10.8-10.8,10.8l0,0V11.1z">
  </path>
  <path class="st2" d="M28.7,14.7v10.8h12.5c5.9,0,10.8-4.8,10.8-10.8l0,0H28.7z">
  </path>
  <path class="st3" d="M0,25.5c0-5.9,4.8-10.8,10.8-10.8l0,0v39.9C10.8,60.5,6,65.4,0,65.4l0,0C0,65.4,0,25.5,0,25.5z">
  </path>
 </g>
</svg>